<?xml version="1.0" standalone="no"?>
<!DOCTYPE svg PUBLIC "-//W3C//DTD SVG 1.1//EN" "http://www.w3.org/Graphics/SVG/1.1/DTD/svg11.dtd" >
<svg xmlns="http://www.w3.org/2000/svg" xmlns:xlink="http://www.w3.org/1999/xlink" version="1.1">
<metadata>
Created by FontForge 20190801 at Mon Jan 18 08:35:05 2016
 By www-data
Copyright (c) 2016 by Cristina Pagnotta. All rights reserved.
</metadata>
<defs>
<font id="AudreyNormalOblique_1" horiz-adv-x="1000" >
  <font-face 
    font-family="AudreyNormalOblique_1"
    font-weight="400"
    font-style="oblique"
    font-stretch="normal"
    units-per-em="1000"
    panose-1="0 0 0 0 0 0 0 0 0 0"
    ascent="700"
    descent="-300"
    x-height="341"
    cap-height="720"
    bbox="0 -264 1301 880"
    underline-thickness="50"
    underline-position="-100"
    unicode-range="U+0009-FB02"
  />
<missing-glyph 
 />
    <glyph glyph-name=".notdef" 
 />
    <glyph glyph-name=".null" horiz-adv-x="0" 
 />
    <glyph glyph-name="nonmarkingreturn" horiz-adv-x="333" 
 />
    <glyph glyph-name="HT" unicode="&#x9;" 
 />
    <glyph glyph-name="LF" unicode="&#xa;" 
 />
    <glyph glyph-name="CR" unicode="&#xd;" 
 />
    <glyph glyph-name="DLE" 
 />
    <glyph glyph-name="DC1" 
 />
    <glyph glyph-name="DC2" 
 />
    <glyph glyph-name="DC3" 
 />
    <glyph glyph-name="DC4" 
 />
    <glyph glyph-name="RS" 
 />
    <glyph glyph-name="US" 
 />
    <glyph glyph-name="space" unicode=" " horiz-adv-x="264" 
 />
    <glyph glyph-name="exclam" unicode="!" horiz-adv-x="311" 
d="M169 91q22 0 35 -16t8 -39q-4 -22 -24 -39q-22 -16 -43 -16q-23 0 -35 17q-13 18 -7 38q5 22 24 39q21 16 42 16zM180 193l47 363q4 34 18 128h101q-5 -18 -12.5 -44.5t-15 -52t-9.5 -31.5l-107 -363h-22z" />
    <glyph glyph-name="quotedbl" unicode="&#x22;" horiz-adv-x="602" 
d="M174 408l156 300h64l-184 -300h-36zM425 408l156 300h64l-184 -300h-36z" />
    <glyph glyph-name="numbersign" unicode="#" horiz-adv-x="765" 
d="M392 -23l389 697h62l-416 -697h-35zM131 -23l389 697h62l-417 -697h-34zM241 451l592 25l-31 -58h-581zM138 214l592 24l-31 -58h-581z" />
    <glyph glyph-name="dollar" unicode="$" horiz-adv-x="440" 
d="M479 195q9 -40 -7 -88q-24 -77 -90 -120q-20 -13 -53 -24l-12 -55h-25l10 48q-35 -6 -69 -2q-13 1 -32 8l-11 -54h-26l14 63q-67 33 -91 91l21 19q32 -67 74 -88l61 285q-18 13 -27 22q-29 27 -36 67q-9 38 5 81q19 64 77 102q22 14 43 21l12 57h26l-11 -50q27 6 54 3
q25 -3 46 -12l13 59h25l-15 -70q28 -17 48 -56l-22 -16q-4 9 -12 23q-9 13 -19 22l-51 -238q32 -23 44 -34q27 -24 36 -64zM385 559q-32 4 -58 -5l-38 -180q22 -20 61 -47q15 -9 27 -18l50 237q-20 12 -42 13zM262 404q1 -1 3 -3.5t3 -3.5l30 141q-34 -26 -44 -60
q-13 -41 8 -74zM232 -23q38 -7 76 8l46 214q-18 15 -49 35q-24 16 -40 28l-59 -279q23 -6 26 -6zM399 79q15 45 -6 79q-5 9 -18 22l-38 -180l2 2q44 30 60 77z" />
    <glyph glyph-name="percent" unicode="%" horiz-adv-x="798" 
d="M266 0h-31l511 678h29zM839 321q23 -52 5 -134q-16 -80 -61 -133q-46 -52 -98 -52q-53 0 -76 51q-23 52 -5 134q18 84 62 134q45 52 98 52q52 0 75 -52zM689 23q34 0 56 33q32 48 50 131q21 96 4 137q-11 27 -40 27q-28 0 -52 -27q-34 -38 -54 -137q-21 -99 -4 -136
q12 -28 40 -28zM385 628q23 -52 5 -134q-18 -83 -62 -133q-45 -52 -98 -52q-52 0 -75 51q-23 52 -5 134q16 84 62 134q45 52 97 52q53 0 76 -52zM235 330q33 0 56 33q32 48 50 131q20 98 4 137q-13 27 -40 27q-29 0 -52 -27q-33 -37 -55 -137q-21 -99 -4 -136q13 -28 41 -28
z" />
    <glyph glyph-name="ampersand" unicode="&#x26;" horiz-adv-x="536" 
d="M472 151l90 -169h-101l-57 110q-3 -3 -7.5 -6t-6.5 -5l-11 -10q-109 -86 -195 -86q-31 0 -63 13q-31 14 -54 39q-23 26 -32 60q-8 33 1 77q14 64 57 108q52 52 152 110q-50 100 -39 151q10 52 60 94t112 42q61 0 93 -31q32 -32 21 -82q-18 -87 -162 -153l131 -240
l123 108h34v-1zM310 630q-27 -24 -34 -61q-4 -16 2 -39t15 -42t27 -55q101 53 118 129q4 18 2 37q-3 20 -11 30q-6 10 -22 19q-13 6 -32 6q-37 0 -65 -24zM379 101l14 13l-137 257q-49 -27 -93 -76q-38 -46 -47 -85q-15 -72 18 -120q36 -54 104 -54q66 0 141 65z" />
    <glyph glyph-name="quotesingle" unicode="'" horiz-adv-x="350" 
d="M172 398l156 300h64l-184 -300h-36z" />
    <glyph glyph-name="parenleft" unicode="(" horiz-adv-x="354" 
d="M212 -187h-27q-99 167 -55 368q39 187 204 352h27q-20 -19 -48 -59t-62 -112.5t-55.5 -153.5t-20 -187t36.5 -208z" />
    <glyph glyph-name="parenright" unicode=")" horiz-adv-x="404" 
d="M247 533h26q99 -164 56 -367q-40 -188 -204 -353h-27q20 19 47.5 59t61.5 112.5t55.5 153.5t20.5 187t-36 208z" />
    <glyph glyph-name="asterisk" unicode="*" horiz-adv-x="699" 
d="M450 494l120 -46q3 -1 22 -8.5t28 -10.5l-71 -91l-37 37l-85 89l-4 -135q0 -23 -2 -59h-104q8 24 22 59l54 136l-123 -89q-4 -4 -13.5 -10.5t-21.5 -15t-17 -12.5l-33 91q43 14 59 20l139 45l-120 46q-27 10 -51 20l72 90l37 -37l84 -90l4 134q0 21 2 57h104
q-3 -7 -11.5 -29t-10.5 -28l-54 -133l123 89q45 31 53 37l33 -90q-34 -12 -59 -20z" />
    <glyph glyph-name="plus" unicode="+" horiz-adv-x="470" 
d="M560 335l-9 -42h-198l-43 -204h-48l43 204h-198l9 42h198l44 204h48l-44 -204h198z" />
    <glyph glyph-name="comma" unicode="," horiz-adv-x="371" 
d="M41 -210l163 285h71l-194 -285h-40z" />
    <glyph glyph-name="hyphen" unicode="-" horiz-adv-x="446" 
d="M137 174l14 66h228l-14 -66h-228z" />
    <glyph glyph-name="period" unicode="." horiz-adv-x="328" 
d="M105 38q4 22 25 38q19 16 42 16t35 -16q13 -14 8 -38q-5 -25 -25 -39q-19 -16 -42 -16t-35 16q-12 17 -8 39z" />
    <glyph glyph-name="slash" unicode="/" horiz-adv-x="565" 
d="M160 -12h-105l496 708h104z" />
    <glyph glyph-name="zero" unicode="0" horiz-adv-x="679" 
d="M639 620q45 -98 10 -260q-33 -160 -120 -259q-87 -101 -190 -101q-101 0 -147 100q-44 99 -9 260q33 160 120 260t189 100t147 -100zM348 42q67 0 109 63q63 96 97 255q41 191 8 265q-24 53 -78 53q-55 0 -102 -53q-26 -29 -54.5 -98t-49.5 -167q-41 -191 -8 -265
q23 -53 78 -53z" />
    <glyph glyph-name="one" unicode="1" horiz-adv-x="679" 
d="M408 720h168l-5 -24l-148 -696h-6h-72h-24l147 690h-38h-28l5 24z" />
    <glyph glyph-name="two" unicode="2" horiz-adv-x="679" 
d="M575 100l-5 -23l-17 -77h-4h-99h-254h-80l8 35v1l4 14q123 78 191 137q117 99 178 176q58 73 75 150q19 88 -15 132q-36 42 -98 42q-52 0 -105 -39q-31 -22 -50 -48l-2 -3l-33 17l3 3q30 34 62 55q76 48 158 48q85 0 144 -50q58 -51 37 -150q-14 -62 -56 -118
q-43 -56 -184 -170q-32 -26 -62 -47.5t-70.5 -49.5t-50.5 -35h325z" />
    <glyph glyph-name="three" unicode="3" horiz-adv-x="679" 
d="M558 356q37 -55 19 -134q-19 -97 -104 -160q-85 -62 -182 -62q-48 0 -87 14l-12 5l50 39l6 -4q1 -1 2 -1q22 -13 48 -13q66 0 113 44q50 42 71 140q15 76 -6 112q-23 36 -61 36q-22 0 -54 -19l-9 -6l-20 39l8 5q2 1 8 4.5t10 5.5q96 55 130 89q34 35 44 87q11 50 -10 75
q-21 26 -64 26q-46 0 -87 -27q-24 -16 -37 -37l-6 -10l-44 31l7 7q9 10 33 30q66 48 157 48q80 0 120 -41q41 -41 29 -92q-9 -45 -51 -84l-3 -3q-53 -49 -110 -81l-14 -9q40 0 63.5 -13.5t42.5 -40.5z" />
    <glyph glyph-name="four" unicode="4" horiz-adv-x="679" 
d="M505 275h146l-8 -37h-6h-140l-51 -238h-7h-77h-26l51 238h-80h-170l8 37v1l1 1l414 443h39l-24 -116zM186 275h209l62 292z" />
    <glyph glyph-name="five" unicode="5" horiz-adv-x="679" 
d="M556 418q48 -64 28 -162q-24 -110 -109 -183q-83 -73 -209 -73q-52 0 -89 14l-4 2l40 32l2 -2q22 -17 59 -17q71 0 127 52q59 53 84 171q23 107 -6 152q-30 44 -82 44q-71 0 -133 -74l-1 -1h-2h-32l53 249l14 69l2 6l5 23h312l-21 -98h-11h-6h-61h-200l-42 -201
q75 63 147 63q87 0 135 -66z" />
    <glyph glyph-name="six" unicode="6" horiz-adv-x="679" 
d="M599 391q42 -52 19 -162q-23 -106 -85 -160q-79 -69 -178 -69q-84 0 -132 51q-47 50 -53 125q-8 76 10 154q34 163 135 277q102 113 233 113q20 0 51 -7l9 -2l-25 -42l-7 3q-15 5 -52 5q-80 0 -134 -67q-56 -69 -86 -211q0 -1 -0.5 -3t-0.5 -3q35 28 67 43q43 20 85 20
q91 0 144 -65zM267 236q-11 -48 -6 -96q5 -47 31 -73q28 -26 66 -26q61 0 102 47q43 51 64 148q14 65 8 98q-5 34 -31 56q-25 22 -65 22q-53 0 -100 -37q-48 -39 -69 -139z" />
    <glyph glyph-name="seven" unicode="7" horiz-adv-x="679" 
d="M695 720l-19 -33q-378 -662 -394 -685l-1 -2h-2h-40h-4l2 4q4 7 172.5 296.5t185.5 319.5h-202h-13h-111l15 70l1 6l5 24h405z" />
    <glyph glyph-name="eight" unicode="8" horiz-adv-x="679" 
d="M569 326q43 -52 26 -130q-20 -93 -96 -144q-75 -52 -160 -52q-87 0 -139 55q-51 55 -33 138q15 71 71 123q48 43 102 59q-34 16 -60 55q-31 47 -17 112q17 79 84 128q66 50 145 50q73 0 122 -48q50 -49 34 -130q-14 -64 -63 -111q-39 -37 -86 -55q39 -12 70 -50zM405 650
q-36 -33 -49 -98q-18 -80 -1 -120q16 -38 63 -38q53 0 86 36q36 37 51 113q15 69 -6 104q-20 34 -67 34q-41 0 -77 -31zM316 313q-36 -39 -53 -113q-11 -52 -8 -88q1 -30 26 -51q23 -21 64 -21q53 0 93 31q42 31 61 123q20 94 -8 126q-26 32 -82 32q-57 0 -93 -39z" />
    <glyph glyph-name="nine" unicode="9" horiz-adv-x="679" 
d="M665 544q7 -71 -10 -154q-34 -163 -135 -276q-102 -114 -233 -114q-58 0 -99 23l-10 6l51 40l5 -8q11 -18 77 -18q80 0 134 67q56 69 86 211q0 1 0.5 3t0.5 3q-36 -30 -67 -43q-43 -20 -86 -20q-90 0 -143 65q-47 59 -25 162q21 100 92 160q78 69 177 69q84 0 131 -51
q46 -49 54 -125zM567 484q11 48 6 96q-3 44 -30 73q-28 26 -66 26q-62 0 -103 -47q-50 -57 -70 -148q-8 -43 -2 -98q5 -33 32 -56q25 -22 64 -22q54 0 100 37q48 37 69 139z" />
    <glyph glyph-name="colon" unicode=":" horiz-adv-x="317" 
d="M105 38q6 24 25 38q19 16 42 16t35 -16q13 -14 8 -38t-24 -39q-20 -16 -43 -16t-35 16q-12 17 -8 39zM181 392q5 21 23 38q20 17 43 17q22 0 36 -16q13 -18 7 -39q-4 -22 -24 -39q-19 -16 -42 -16t-36 16q-12 16 -7 39z" />
    <glyph glyph-name="semicolon" unicode=";" horiz-adv-x="373" 
d="M253 392q5 21 23 38q20 17 43 17q22 0 36 -16q13 -18 7 -39q-4 -22 -24 -39q-19 -16 -42 -16t-36 16q-12 16 -7 39zM201 69l-162 -285h39l194 285h-71z" />
    <glyph glyph-name="less" unicode="&#x3c;" horiz-adv-x="264" 
 />
    <glyph glyph-name="equal" unicode="=" horiz-adv-x="1385" 
d="M813 240l10 48h444l-10 -48h-444zM847 402l10 48h444l-10 -48h-444z" />
    <glyph glyph-name="greater" unicode="&#x3e;" horiz-adv-x="264" 
 />
    <glyph glyph-name="question" unicode="?" horiz-adv-x="453" 
d="M156 95q23 0 36 -16q12 -17 8 -39q-4 -21 -25 -39q-19 -16 -42 -16t-36 17q-12 16 -7 38q4 22 24 39q19 16 42 16zM448 634q31 -49 13 -136q-17 -76 -58 -112q-51 -45 -108 -45q-39 0 -58 23l-49 -170h-23l36 194h45q12 -16 36 -16q40 0 68 39q28 40 44 117q15 73 -9 106
q-25 33 -66 33q-40 0 -66 -16l-15 20q42 18 90 18q84 0 120 -55z" />
    <glyph glyph-name="at" unicode="@" horiz-adv-x="269" 
 />
    <glyph glyph-name="A" unicode="A" horiz-adv-x="791" 
d="M280 288h248l-62 302zM558 132l-26 132h-265l-157 -264h-38l451 720h21l153 -720h-113z" />
    <glyph glyph-name="B" unicode="B" horiz-adv-x="674" 
d="M273 367l-71 -337h90q90 0 134 36q52 43 70 130q19 88 -20 130t-158 42q-6 0 -22.5 -0.5t-22.5 -0.5zM342 693l-63 -301h26q113 0 163 36t66 116q12 54 2 86q-10 30 -39 47q-28 17 -107 17q-35 0 -48 -1zM92 0l153 720h145q146 0 210.5 -42t46.5 -127q-15 -70 -74 -112
q-60 -42 -164 -57q120 -9 168 -60q48 -53 32 -129q-15 -69 -65 -117q-50 -47 -116 -62q-62 -14 -170 -14h-166z" />
    <glyph glyph-name="C" unicode="C" horiz-adv-x="657" 
d="M655 126l17 -21q-116 -105 -257 -105q-149 0 -226 95q-75 96 -41 252q20 100 85 194q62 91 151 135q90 44 183 44q76 0 134 -32q55 -32 78 -69v-3l-24 -19q-12 26 -31 42q-58 55 -148 55q-109 0 -192 -89q-84 -90 -118 -253q-33 -157 19 -240q53 -83 157 -83q56 0 120 27
q53 23 93 70z" />
    <glyph glyph-name="D" unicode="D" horiz-adv-x="816" 
d="M199 24h111q91 0 158 26q66 26 121 100q57 75 81 191q20 92 11 162q-7 68 -42 115q-34 44 -84 61q-53 16 -133 16q-45 0 -81 -3zM91 0l153 720h198q160 0 237 -49q79 -49 104 -131t3 -191q-17 -79 -54 -143q-39 -66 -88 -107q-51 -44 -109 -66q-60 -23 -110 -27
q-49 -6 -138 -6h-196z" />
    <glyph glyph-name="E" unicode="E" horiz-adv-x="573" 
d="M198 25h94h220l-5 -25h-418l39 185l11 50l9 43l56 264l38 178h420l-5 -24h-221h-96l-33 -155l-4 -21l-28 -129h73h135l-5 -25h-132h-76l-19 -88l-3 -16l-6 -27l-10 -50z" />
    <glyph glyph-name="F" unicode="F" horiz-adv-x="482" 
d="M187 0h-104l39 182l11 51l9 43l56 264l38 180h420l-5 -24h-221h-95l-33 -157l-5 -21l-27 -127h72h136l-6 -25h-132h-75l-19 -90l-4 -17l-5 -26l-11 -50z" />
    <glyph glyph-name="G" unicode="G" horiz-adv-x="792" 
d="M641 179l27 128h100l-24 -114q-14 -69 -74 -111q-56 -40 -83 -49q-93 -33 -168 -33q-149 0 -227 98q-78 97 -46 249q32 149 150 261t279 112q140 0 207 -100l-1 -3l-28 -24q-13 26 -25 39q-52 63 -148 63q-98 0 -186 -73t-127 -258t14 -262q54 -77 158 -77q54 0 101 22
q46 20 70 53q20 28 31 79z" />
    <glyph glyph-name="H" unicode="H" horiz-adv-x="809" 
d="M741 720h104l-153 -720h-104l78 366h-384l-78 -366h-104l153 720h104l-70 -329h384z" />
    <glyph glyph-name="I" unicode="I" horiz-adv-x="321" 
d="M253 720h104l-38 -179l-76 -354l-39 -187h-104l40 187l75 354z" />
    <glyph glyph-name="J" unicode="J" horiz-adv-x="489" 
d="M442 720h82l-19 -89l-79 -372q-12 -59 -30 -111q-13 -35 -49 -73q-34 -37 -81 -56t-105 -19q-38 0 -71 20l24 15q15 -7 27 -11t17 -4l5 -1q46 0 88 31q40 31 55 72q20 50 38 137l79 372z" />
    <glyph glyph-name="K" unicode="K" horiz-adv-x="797" 
d="M494 118q-6 7 -16 20.5t-14 18.5l-162 205l-59 -45l-28 -132l-39 -185h-104l40 185l75 354l38 181h104l-38 -181l-40 -187l259 198v2l221 168h35l-160 -125q-7 -6 -24 -20t-28 -22l-20 -18l-141 -107l210 -272q3 -4 9 -10.5t8 -8.5l-1 -2q1 -1 0 -1q-1 -2 0 -2l104 -132
h-143l-86 119v-1z" />
    <glyph glyph-name="L" unicode="L" horiz-adv-x="627" 
d="M184 24h397l-5 -24h-501l40 185l75 354l38 181h104z" />
    <glyph glyph-name="M" unicode="M" horiz-adv-x="943" 
d="M722 0l41 192l98 459l-426 -651h-25l-147 651l-90 -422l-49 -229h-24l49 232l67 314l37 174h100l138 -597l389 597h99l-37 -174l-75 -354l-41 -192h-104z" />
    <glyph glyph-name="N" unicode="N" horiz-adv-x="763" 
d="M769 720h30l-28 -134l-125 -586h-19l-364 663l-103 -488l-34 -157h-24l34 157l79 373l37 172h108l293 -547l90 421z" />
    <glyph glyph-name="O" unicode="O" horiz-adv-x="896" 
d="M276 361q-35 -169 14 -251q25 -44 60 -64t99 -20q105 0 191 84q71 68 110 250q38 178 -3 248q-25 44 -63 65t-101 21q-60 0 -100.5 -19.5t-86.5 -64.5q-84 -84 -120 -249zM160 365q34 161 162 258q68 51 128 74t138 23t129.5 -23t97.5 -73q88 -95 53 -263
q-35 -162 -160 -261q-65 -52 -127 -76t-145 -24q-80 0 -131 24t-95 76q-86 100 -50 265z" />
    <glyph glyph-name="P" unicode="P" horiz-adv-x="618" 
d="M236 720h146q104 0 166 -20q54 -16 85 -63q28 -45 15 -111q-14 -58 -48 -102q-35 -43 -89 -66q-43 -19 -176 -19h-77l-34 -159q-3 -14 -8 -36t-7 -35l-23 -109h-103l38 180l75 350zM488 421q34 38 46 97q20 89 -15 130q-35 42 -132 42q-29 0 -55 -2l-69 -325h50
q71 0 102 9q44 13 73 49z" />
    <glyph glyph-name="Q" unicode="Q" horiz-adv-x="885" 
d="M561 21q78 -36 137 -129l-53 -13q-43 92 -126 130q-42 -9 -92 -9q-80 0 -130.5 23.5t-95.5 76.5q-84 99 -49 263q34 161 162 258q67 51 127 74t137 23q78 0 129.5 -23t97.5 -73q88 -97 52 -262q-33 -161 -159 -260q-68 -56 -137 -79zM281 109q32 -56 82 -73q1 0 4.5 1.5
t5.5 1.5q50 11 140 0q1 0 3 -1q59 18 115 71q40 39 64.5 99t44.5 151q38 176 -3 247q-48 86 -164 86q-59 0 -99.5 -19.5t-86.5 -64.5q-85 -84 -119 -248q-36 -166 13 -251z" />
    <glyph glyph-name="R" unicode="R" horiz-adv-x="716" 
d="M240 720h157q110 0 161 -17q63 -19 91 -58q29 -42 17 -103q-16 -72 -77 -119q-69 -55 -165 -68q14 -7 18.5 -9.5t20 -13.5t25.5 -22t25 -31.5t28 -45.5q39 -72 70 -233h-82q0 16 -5.5 49t-22.5 85.5t-41 97t-68 77.5t-99 33h-31l-32 -151l-41 -191h-102l41 191l74 348z
M267 366h83q18 0 77 16q25 7 56 32q23 17 40 47q17 28 26 71q16 74 -12 118q-25 40 -157 40h-44z" />
    <glyph glyph-name="S" unicode="S" horiz-adv-x="607" 
d="M547 276q10 -44 -7 -101q-28 -87 -104 -137q-76 -48 -171 -38q-50 5 -98.5 41t-67.5 83l24 21q28 -58 58.5 -84t82.5 -35q69 -10 123 29q52 36 69 88t-7 90q-22 37 -101 87q-72 47 -101 76q-33 32 -42 76q-11 45 6 93q22 73 88 117q65 43 142 35q41 -4 75 -23
q33 -18 59 -67l-26 -18q-8 18 -14 26q-33 51 -96 57q-59 7 -98 -23t-51 -70q-15 -47 9 -84q22 -35 101 -89q75 -49 106 -77q32 -29 41 -73z" />
    <glyph glyph-name="T" unicode="T" horiz-adv-x="714" 
d="M918 720l-5 -24h-182h-118l-108 -506l-40 -190h-104l40 190l108 506h-105h-192l6 24h700z" />
    <glyph glyph-name="U" unicode="U" horiz-adv-x="784" 
d="M797 720h24l-36 -169l-51 -237q-13 -63 -39 -135q-15 -40 -63 -86q-45 -43 -109 -68q-66 -25 -147 -25q-93 0 -154 32q-57 32 -75 84q-19 59 3 137l21 73l47 221l37 173h102l-37 -173l-47 -224q-29 -131 -29 -165q0 -52 38 -85q41 -37 126 -37q67 0 124 25q61 25 93 60
q39 44 50 76q24 68 36 121l52 242z" />
    <glyph glyph-name="V" unicode="V" horiz-adv-x="812" 
d="M842 720h33l-142 -223l-314 -497h-33l-124 557l-4 15q-1 4 -3 16t-4 19q-3 20 -7 31l-18 82h105l32 -137l103 -468l245 389q2 3 38 62z" />
    <glyph glyph-name="W" unicode="W" horiz-adv-x="1199" 
d="M1228 720h34l-142 -223l-315 -497h-32l-92 415l-262 -415h-33l-124 556l-4 14q-2 5 -4 17.5t-3 17.5q-4 24 -7 31l-18 84h105l32 -137l103 -469l256 410h42l89 -409l245 386q7 12 37 63z" />
    <glyph glyph-name="X" unicode="X" horiz-adv-x="888" 
d="M750 83l54 -83h-146l-58 104q-2 3 -13 24.5t-21 37.5l-95 158l-142 -137l-48 -48l-138 -139h-37l146 144q45 45 55 54l151 146l-141 228l-46 73q-2 3 -5.5 8.5t-5.5 7.5l-39 59h139l81 -142l2 1l97 -157l151 149l58 58l92 91h35l-140 -138q-7 -7 -21.5 -20t-17.5 -16
l-144 -144l138 -227q13 -21 33 -51.5t26 -40.5z" />
    <glyph glyph-name="Y" unicode="Y" horiz-adv-x="802" 
d="M827 720h44l-355 -434l-61 -286h-103l59 279l-182 441h131l148 -405z" />
    <glyph glyph-name="Z" unicode="Z" horiz-adv-x="647" 
d="M348 24h237l-6 -24h-579l4 21l604 675h-223h-187l5 24h537l-6 -27l-604 -669h218z" />
    <glyph glyph-name="bracketleft" unicode="[" horiz-adv-x="875" 
d="M334 533h15h-15zM528 -164l142 666l4 22h1h65h81l-5 -22h-80l-142 -666h81l-5 -23h-80h-66h-1z" />
    <glyph glyph-name="backslash" unicode="\" horiz-adv-x="623" 
d="M531 -18h-103l-192 703h103z" />
    <glyph glyph-name="bracketright" unicode="]" horiz-adv-x="370" 
d="M349 502l-142 -666l-5 -23h-1h-65h-80l4 23h81l141 666h-80l5 22h80h65h1z" />
    <glyph glyph-name="asciicircum" unicode="^" horiz-adv-x="1207" 
d="M860 348h-37l311 372h6l159 -372h-112l-111 247zM451 720h21h-21z" />
    <glyph glyph-name="underscore" unicode="_" 
 />
    <glyph glyph-name="grave" unicode="`" 
 />
    <glyph glyph-name="a" unicode="a" horiz-adv-x="503" 
d="M438 318q5 -25 -5 -69l-31 -146l-24 -113h-64l4 15l10 48q-54 -33 -91 -47q-38 -16 -68 -16q-32 0 -51 29.5t-13 55.5q5 24 15.5 39.5t36.5 32.5q50 34 136 66l75 28l4 18q8 37 6 54t-19 30q-16 13 -50 13q-47 0 -81 -20q-5 7 -11 14q47 26 105 26q56 0 84 -18
q26 -17 32 -40zM333 77l30 143l-52 -19q-124 -46 -139 -117q-6 -28 5 -45q12 -17 35 -17q20 0 51 14q26 12 70 41z" />
    <glyph glyph-name="b" unicode="b" horiz-adv-x="555" 
d="M472 318q34 -49 14 -142q-18 -84 -75 -136q-64 -56 -144 -56q-40 0 -66 17q-27 16 -40 49q-4 -21 -14 -66h-63l131 618h53q1 -1 1 0h9l-60 -285q36 28 71 42q33 13 67 13q77 0 116 -54zM166 73q1 -17 32 -46q22 -22 60 -22q57 0 100 46q44 47 62 134q17 81 -5 122
q-23 42 -75 42q-28 0 -62 -14q-33 -16 -66 -43z" />
    <glyph glyph-name="c" unicode="c" horiz-adv-x="461" 
d="M286 7q46 0 78 22l10 -13q-46 -32 -112 -32q-75 0 -118 52q-41 53 -23 138t82 139q64 52 140 52q66 0 98 -32l-15 -13q-25 22 -69 22q-64 0 -106 -48q-41 -48 -57 -120q-15 -70 6 -119q22 -48 86 -48z" />
    <glyph glyph-name="d" unicode="d" horiz-adv-x="569" 
d="M523 602h53l-131 -618h-63q10 45 14 66q-27 -33 -61 -49q-34 -17 -73 -17q-81 0 -120 56q-35 51 -17 136q18 92 74 142q61 54 139 54q34 0 61 -13q29 -13 54 -42l60 285h9h1zM401 73l46 219q-20 27 -47 43q-26 14 -56 14q-52 0 -92 -42q-40 -41 -58 -122q-18 -87 5 -134
q24 -46 81 -46q37 0 69 22q42 28 52 46z" />
    <glyph glyph-name="e" unicode="e" horiz-adv-x="496" 
d="M391 60l12 -15q-19 -20 -47 -36q-48 -25 -96 -25q-44 0 -81 23q-35 23 -53 65q-16 41 -4 102q18 84 80 142q64 56 137 56q72 0 100 -43q27 -38 16 -93h-245q-3 -11 -10 -38q-20 -96 -1 -143q20 -47 79 -47q68 0 113 52zM332 353q-80 0 -117 -99h191q4 8 1.5 24t-7.5 33
t-23 29.5t-45 12.5z" />
    <glyph glyph-name="f" unicode="f" horiz-adv-x="401" 
d="M442 617q36 -4 52 -25l-22 -18q-18 23 -49 23q-29 0 -53 -20q-26 -20 -37 -51q-9 -26 -31 -131l-6 -28h76l-4 -20h-77l-36 -173l-11 -48l-26 -126h-65l27 126l47 221h-69l4 20h69l7 34q10 48 23 86q11 30 39 63q28 32 63 50q43 21 79 17z" />
    <glyph glyph-name="g" unicode="g" horiz-adv-x="526" 
d="M441 -50q18 -32 8 -76q-12 -63 -72 -100q-57 -38 -154 -38q-88 0 -134 34t-34 85q0 3 1 4h35q0 -11 -1 -24.5t7.5 -27.5t22 -25.5t42.5 -19t69 -7.5q68 0 113 27q44 29 53 71q10 43 -2 62q-23 38 -124 38q-121 0 -138 14q-25 21 -19 52q14 62 103 78q-38 26 -55 60
q-15 34 -6 76q12 59 68 100q54 42 118 42q40 0 78 -18.5t48 -43.5q16 -41 7 -82q-12 -56 -62 -100t-147 -47q-90 -3 -111 -39q-16 -32 16 -38q28 -6 114 -8.5t98 -5.5q40 -11 58 -43zM224 222q-12 -60 6 -89q16 -23 59 -23q41 0 66 23q32 29 47 97q15 70 -7 96
q-17 21 -57 21q-48 0 -71 -27q-28 -31 -43 -98z" />
    <glyph glyph-name="h" unicode="h" horiz-adv-x="515" 
d="M469 317q3 -24 -10 -90l-22 -101l-27 -126h-64l27 126l23 110q10 46 9 68q0 22 -17 36q-18 15 -47 15q-35 0 -67 -21q-30 -18 -62 -61l-31 -147l-27 -126h-64l26 126l78 366l27 125h46q3 -2 8 0h10l-66 -310q35 38 72 56q37 19 78 19q45 0 71 -19q26 -18 29 -46z" />
    <glyph glyph-name="i" unicode="i" horiz-adv-x="294" 
d="M250 502q-19 0 -30 14q-10 13 -6 34q3 17 20 33q17 14 36 14t30 -14q10 -15 6 -33q-3 -20 -20 -34t-36 -14zM192 382h54h10l-40 -191l-14 -65l-27 -126h-64l27 126l23 111q1 1 1 3t1 3z" />
    <glyph glyph-name="j" unicode="j" horiz-adv-x="436" 
d="M400 502q-21 0 -30 15q-10 13 -7 33q5 18 21 33q16 13 36 13q19 0 29 -13q11 -16 7 -33q-4 -20 -21 -34t-35 -14zM398 383h10l-83 -393q-13 -58 -24 -90q-12 -31 -36 -59q-27 -30 -63 -46q-35 -17 -81 -17q-23 0 -39 4l11 20q6 -5 46 -5q26 0 53 19t37 48q13 35 25 93
l60 282l30 144h54z" />
    <glyph glyph-name="k" unicode="k" horiz-adv-x="505" 
d="M484 367l-216 -137l148 -230h-80l-125 193l-22 -14l-11 -53l-27 -126h-65l27 126l86 405l7 34h54h1h10l-77 -361l259 163h31z" />
    <glyph glyph-name="l" unicode="l" horiz-adv-x="278" 
d="M191 126l-26 -126h-65l27 126l77 363l27 128h53q0 -2 2 0h10z" />
    <glyph glyph-name="m" unicode="m" horiz-adv-x="794" 
d="M180 382h65l-17 -77q39 39 77 58t79 19q45 0 69 -21q24 -19 27 -61q44 42 83 61q39 21 77 21q42 0 68 -20t26 -45q1 -22 -11 -81l-23 -110l-27 -126h-64l27 126l26 122q8 40 8 56q-2 20 -16 33t-44 13q-31 0 -62 -20q-33 -19 -72 -59l-31 -145l-26 -126h-65l27 126
l21 102q11 50 11 70q2 22 -15 37q-15 16 -44 16q-28 0 -61 -18q-32 -17 -70 -54l-33 -153l-27 -126h-64l27 126l23 110z" />
    <glyph glyph-name="n" unicode="n" horiz-adv-x="539" 
d="M476 271l-31 -145l-26 -126h-65l27 126l21 102q11 50 11 70q2 22 -15 37q-15 16 -44 16q-28 0 -61 -18q-32 -17 -70 -54l-33 -153l-27 -126h-64l27 126l23 110l31 146h65l-17 -77q39 39 77 58t79 19q45 0 69 -21q31 -25 27 -61q1 -7 -4 -29z" />
    <glyph glyph-name="o" unicode="o" horiz-adv-x="557" 
d="M192 177q-18 -90 6 -134q21 -39 74 -39q54 0 91 39q42 44 62 134q18 87 -5 135q-19 40 -74 40t-92 -40q-43 -48 -62 -135zM129 179q16 81 81 138q64 55 140 55q77 0 117 -55q40 -58 22 -138q-18 -90 -83 -143q-62 -52 -139 -52q-74 0 -116 53q-41 53 -22 142z" />
    <glyph glyph-name="p" unicode="p" horiz-adv-x="558" 
d="M163 354h63l-13 -60q35 30 70 45q36 15 72 15q74 0 113 -53q40 -53 20 -139q-19 -87 -80 -141q-62 -57 -143 -57q-35 0 -62 13q-29 15 -49 40l-29 -137l-26 -124h-63l26 124l70 328zM350 30q47 44 66 136q18 81 -10 121q-27 41 -76 41q-29 0 -61 -16q-29 -14 -62 -47
l-47 -219q18 -29 41 -44q24 -15 53 -15q48 0 96 43z" />
    <glyph glyph-name="q" unicode="q" horiz-adv-x="573" 
d="M204 30q29 -43 78 -43q29 0 59 15q29 14 60 44l46 219q-18 32 -42 47q-26 16 -54 16q-48 0 -94 -41q-44 -40 -61 -121q-20 -94 8 -136zM466 354h63l-31 -146l-70 -328l-26 -124h-63l26 124l30 137q-31 -25 -67 -40q-32 -13 -67 -13q-81 0 -119 57q-38 56 -20 141
q18 86 79 139q62 53 136 53q37 0 65 -15q30 -15 51 -45z" />
    <glyph glyph-name="r" unicode="r" horiz-adv-x="397" 
d="M362 339q-38 28 -95 -15q-30 -24 -47 -55q-14 -29 -24 -78l-14 -65l-26 -126h-65l27 126l22 104l32 152h60l-20 -95q28 55 80 77.5t88 0.5z" />
    <glyph glyph-name="s" unicode="s" horiz-adv-x="409" 
d="M95 37l3 1l-1 -1q-1 -1 -2 -1v1zM324 132q3 -33 -10 -64q-18 -46 -59 -69t-85 -14q-46 11 -66 57l18 10q12 -39 55 -48q32 -6 54 10q23 16 34 40q11 29 2 49q-11 22 -48 56q-39 35 -52 67q-12 28 3 66q13 34 51 61q36 27 80 18q41 -9 56 -48l-19 -11q-12 33 -44 39
q-23 6 -46 -7q-22 -13 -31 -34q-9 -24 1 -44q9 -20 47 -52q56 -47 59 -82z" />
    <glyph glyph-name="t" unicode="t" horiz-adv-x="424" 
d="M167 358h52l24 112h63l-24 -112h108l-4 -20h-108l-47 -217q-10 -49 -10 -68q2 -18 13 -28t28 -10q32 0 63 36l12 -9q-19 -28 -49 -43t-57 -15q-32 0 -52 19q-20 18 -20 43q-1 21 13 88l43 204h-52z" />
    <glyph glyph-name="u" unicode="u" horiz-adv-x="536" 
d="M346 -5l15 73q-34 -42 -74 -63q-39 -21 -81 -21q-35 0 -60 17t-29 40q-6 22 5 71l26 123l26 123h63l-53 -249q-7 -35 -7 -54q2 -17 16 -29q17 -12 39 -12q35 0 70 22q34 21 51 47q16 23 27 70l17 82l26 123h63l-50 -236l-27 -127h-63z" />
    <glyph glyph-name="v" unicode="v" horiz-adv-x="527" 
d="M494 358h20l-244 -374h-26l-89 374h69l72 -306z" />
    <glyph glyph-name="w" unicode="w" horiz-adv-x="799" 
d="M764 359h20l-244 -374h-26l-61 256l-168 -256h-25l-89 374h68l72 -307l161 247h35l59 -247z" />
    <glyph glyph-name="x" unicode="x" horiz-adv-x="570" 
d="M349 209l124 -209h-82l-94 159l-170 -159h-31l192 175l-115 192h82l84 -144l157 144h30z" />
    <glyph glyph-name="y" unicode="y" horiz-adv-x="515" 
d="M499 341l-389 -595h-18l142 219l-89 376h67l71 -303l196 303h20z" />
    <glyph glyph-name="z" unicode="z" horiz-adv-x="498" 
d="M397 0h-322l3 14l314 333h-228l4 20h310l-4 -16l-312 -330h240z" />
    <glyph glyph-name="braceleft" unicode="{" 
 />
    <glyph glyph-name="bar" unicode="|" 
 />
    <glyph glyph-name="braceright" unicode="}" 
 />
    <glyph glyph-name="asciitilde" unicode="~" 
 />
    <glyph glyph-name="DEL" horiz-adv-x="264" 
 />
    <glyph glyph-name="uni00A0" unicode="&#xa0;" 
 />
    <glyph glyph-name="exclamdown" unicode="&#xa1;" 
 />
    <glyph glyph-name="cent" unicode="&#xa2;" 
 />
    <glyph glyph-name="sterling" unicode="&#xa3;" 
 />
    <glyph glyph-name="yen" unicode="&#xa5;" 
 />
    <glyph glyph-name="brokenbar" unicode="&#xa6;" 
 />
    <glyph glyph-name="section" unicode="&#xa7;" 
 />
    <glyph glyph-name="dieresis" unicode="&#xa8;" 
 />
    <glyph glyph-name="copyright" unicode="&#xa9;" 
 />
    <glyph glyph-name="ordfeminine" unicode="&#xaa;" 
 />
    <glyph glyph-name="guillemotleft" unicode="&#xab;" 
 />
    <glyph glyph-name="logicalnot" unicode="&#xac;" 
 />
    <glyph glyph-name="registered" unicode="&#xae;" 
 />
    <glyph glyph-name="degree" unicode="&#xb0;" 
 />
    <glyph glyph-name="plusminus" unicode="&#xb1;" 
 />
    <glyph glyph-name="twosuperior" unicode="&#xb2;" 
 />
    <glyph glyph-name="threesuperior" unicode="&#xb3;" 
 />
    <glyph glyph-name="acute" unicode="&#xb4;" 
 />
    <glyph glyph-name="mu" unicode="&#xb5;" 
 />
    <glyph glyph-name="paragraph" unicode="&#xb6;" 
 />
    <glyph glyph-name="periodcentered" unicode="&#xb7;" horiz-adv-x="264" 
 />
    <glyph glyph-name="onesuperior" unicode="&#xb9;" 
 />
    <glyph glyph-name="ordmasculine" unicode="&#xba;" 
 />
    <glyph glyph-name="guillemotright" unicode="&#xbb;" 
 />
    <glyph glyph-name="onequarter" unicode="&#xbc;" 
 />
    <glyph glyph-name="onehalf" unicode="&#xbd;" 
 />
    <glyph glyph-name="threequarters" unicode="&#xbe;" 
 />
    <glyph glyph-name="questiondown" unicode="&#xbf;" 
 />
    <glyph glyph-name="Agrave" unicode="&#xc0;" horiz-adv-x="583" 
d="M453 800l-55 80h51l44 -80h-40zM207 288h249l-62 302zM486 132l-27 132h-264l-158 -264h-37l451 720h20l153 -720h-112z" />
    <glyph glyph-name="Aacute" unicode="&#xc1;" horiz-adv-x="583" 
d="M459 264l27 -132q8 -39 26 -132h112l-153 720h-20l-451 -720h37l158 264h264zM456 288h-249l187 302zM591 880l-89 -80h-40l78 80h51z" />
    <glyph glyph-name="Acircumflex" unicode="&#xc2;" horiz-adv-x="264" 
 />
    <glyph glyph-name="Atilde" unicode="&#xc3;" horiz-adv-x="264" 
 />
    <glyph glyph-name="Adieresis" unicode="&#xc4;" 
 />
    <glyph glyph-name="Aring" unicode="&#xc5;" 
 />
    <glyph glyph-name="AE" unicode="&#xc6;" 
 />
    <glyph glyph-name="Ccedilla" unicode="&#xc7;" 
 />
    <glyph glyph-name="Egrave" unicode="&#xc8;" horiz-adv-x="547" 
d="M388 800l-55 80h51l44 -80h-40zM203 25h-94l34 160l11 50l5 27l4 16l19 88h75h132l5 25h-134h-73l27 129l5 21l33 155h96h220l5 24h-420l-38 -178l-56 -264l-9 -43l-11 -50l-39 -185h418l5 25h-220z" />
    <glyph glyph-name="Eacute" unicode="&#xc9;" horiz-adv-x="547" 
d="M109 25h94h220l-5 -25h-418l39 185l11 50l9 43l56 264l38 178h420l-5 -24h-220h-96l-33 -155l-5 -21l-27 -129h73h134l-5 -25h-132h-75l-19 -88l-4 -16l-5 -27l-11 -50zM498 880l-89 -80h-40l78 80h51z" />
    <glyph glyph-name="Ecircumflex" unicode="&#xca;" horiz-adv-x="264" 
 />
    <glyph glyph-name="Edieresis" unicode="&#xcb;" horiz-adv-x="264" 
 />
    <glyph glyph-name="Igrave" unicode="&#xcc;" horiz-adv-x="264" 
 />
    <glyph glyph-name="Iacute" unicode="&#xcd;" horiz-adv-x="264" 
 />
    <glyph glyph-name="Icircumflex" unicode="&#xce;" horiz-adv-x="264" 
 />
    <glyph glyph-name="Idieresis" unicode="&#xcf;" horiz-adv-x="264" 
 />
    <glyph glyph-name="Eth" unicode="&#xd0;" 
 />
    <glyph glyph-name="Ntilde" unicode="&#xd1;" 
 />
    <glyph glyph-name="Ograve" unicode="&#xd2;" horiz-adv-x="879" 
d="M514 800l-55 80h51l44 -80h-40zM194 361q-36 -166 13 -251q26 -45 61 -64.5t99 -19.5q106 0 191 84q71 70 110 250q12 58 16.5 100.5t0 81.5t-19.5 66q-25 44 -64 65t-101 21q-59 0 -100 -19.5t-86 -64.5q-86 -84 -120 -249zM77 365q35 161 163 258q66 51 126.5 74
t138.5 23q79 0 130.5 -23t97.5 -73q87 -97 53 -263q-34 -161 -160 -261q-66 -52 -128 -76t-144 -24q-80 0 -131 24t-96 76q-85 100 -50 265z" />
    <glyph glyph-name="Oacute" unicode="&#xd3;" horiz-adv-x="879" 
d="M77 365q-35 -165 50 -265q45 -52 96 -76t131 -24q82 0 144 24t128 76q126 100 160 261q34 166 -53 263q-46 50 -97.5 73t-130.5 23q-78 0 -138.5 -23t-126.5 -74q-128 -97 -163 -258zM194 361q34 165 120 249q45 45 86 64.5t100 19.5q62 0 101 -21t64 -65
q15 -27 19.5 -66t0 -81.5t-16.5 -100.5q-39 -180 -110 -250q-85 -84 -191 -84q-64 0 -99 19.5t-61 64.5q-49 85 -13 251zM641 880l-89 -80h-40l78 80h51z" />
    <glyph glyph-name="Ocircumflex" unicode="&#xd4;" horiz-adv-x="264" 
 />
    <glyph glyph-name="Otilde" unicode="&#xd5;" horiz-adv-x="264" 
 />
    <glyph glyph-name="Odieresis" unicode="&#xd6;" 
 />
    <glyph glyph-name="multiply" unicode="&#xd7;" 
 />
    <glyph glyph-name="Oslash" unicode="&#xd8;" 
 />
    <glyph glyph-name="Ugrave" unicode="&#xd9;" horiz-adv-x="748" 
d="M495 800l-55 80h51l44 -80h-40zM724 720h-24l-34 -160l-52 -242q-12 -62 -36 -121q-12 -35 -50 -76q-32 -35 -93 -60q-57 -25 -124 -25q-84 0 -125 37q-37 32 -39 85q0 34 29 165l48 224l36 173h-102l-37 -173l-47 -221l-20 -73q-22 -80 -4 -137q18 -52 76 -84
q59 -32 153 -32q81 0 147 25q67 26 109 68q48 46 63 86q26 72 40 135l50 237z" />
    <glyph glyph-name="Uacute" unicode="&#xda;" horiz-adv-x="748" 
d="M700 720h24l-36 -169l-50 -237q-14 -63 -40 -135q-15 -40 -63 -86q-42 -42 -109 -68q-66 -25 -147 -25q-94 0 -153 32q-58 32 -76 84q-18 57 4 137l20 73l47 221l37 173h102l-36 -173l-48 -224q-29 -131 -29 -165q2 -53 39 -85q41 -37 125 -37q67 0 124 25q61 25 93 60
q38 41 50 76q24 59 36 121l52 242zM591 880l-89 -80h-40l78 80h51z" />
    <glyph glyph-name="Ucircumflex" unicode="&#xdb;" horiz-adv-x="264" 
 />
    <glyph glyph-name="Udieresis" unicode="&#xdc;" 
 />
    <glyph glyph-name="Yacute" unicode="&#xdd;" 
 />
    <glyph glyph-name="Thorn" unicode="&#xde;" 
 />
    <glyph glyph-name="germandbls" unicode="&#xdf;" 
 />
    <glyph glyph-name="agrave" unicode="&#xe0;" horiz-adv-x="634" 
d="M436 464l-55 80h51l44 -80h-40zM446 220l-30 -143q-44 -30 -71 -41q-31 -14 -51 -14q-23 0 -34 17t-5 45q15 71 139 117zM521 318q-6 22 -33 40t-83 18q-58 0 -105 -26q5 -7 11 -14q34 20 81 20q34 0 50 -13q17 -13 19 -30q2 -18 -7 -54l-3 -18l-75 -28q-83 -31 -137 -66
q-43 -29 -51 -72q-6 -26 13 -55.5t50 -29.5q30 0 69 16q40 15 91 47l-11 -48l-3 -15h64l24 113l31 146q9 48 5 69z" />
    <glyph glyph-name="aacute" unicode="&#xe1;" horiz-adv-x="635" 
d="M521 318q4 -21 -5 -69l-31 -146l-24 -113h-64l3 15l11 48q-51 -32 -91 -47q-39 -16 -69 -16q-31 0 -50 29.5t-13 55.5q8 43 51 72q54 35 137 66l75 28l3 18q9 36 7 54q-2 17 -19 30q-16 13 -50 13q-47 0 -81 -20q-6 7 -11 14q47 26 105 26q56 0 83 -18t33 -40zM416 77
l30 143l-52 -19q-124 -46 -139 -117q-6 -28 5 -45t34 -17q20 0 51 14q27 11 71 41zM533 544l-89 -80h-40l78 80h51z" />
    <glyph glyph-name="acircumflex" unicode="&#xe2;" horiz-adv-x="264" 
 />
    <glyph glyph-name="atilde" unicode="&#xe3;" horiz-adv-x="264" 
 />
    <glyph glyph-name="adieresis" unicode="&#xe4;" horiz-adv-x="264" 
 />
    <glyph glyph-name="aring" unicode="&#xe5;" horiz-adv-x="264" 
 />
    <glyph glyph-name="ae" unicode="&#xe6;" 
 />
    <glyph glyph-name="ccedilla" unicode="&#xe7;" horiz-adv-x="264" 
 />
    <glyph glyph-name="egrave" unicode="&#xe8;" horiz-adv-x="501" 
d="M486 464l-55 80h51l44 -80h-40zM460 353q27 0 45 -12.5t23 -29.5t7.5 -33t-1.5 -24h-191q37 99 117 99zM531 45l-12 15q-45 -52 -113 -52q-59 0 -79 47q-20 49 1 143q7 27 10 38h245q11 55 -16 93q-28 43 -100 43q-73 0 -137 -56q-62 -58 -80 -142q-12 -61 4 -102
q18 -42 53 -65q37 -23 81 -23q48 0 96 25q28 16 47 36z" />
    <glyph glyph-name="eacute" unicode="&#xe9;" horiz-adv-x="502" 
d="M519 60l12 -15q-19 -20 -47 -36q-48 -25 -96 -25q-44 0 -81 23q-35 23 -53 65q-16 41 -4 102q18 84 80 142q64 56 137 56q72 0 100 -43q27 -38 16 -93h-245q-3 -11 -10 -38q-21 -94 -1 -143q20 -47 79 -47q68 0 113 52zM460 353q-80 0 -117 -99h191q4 8 1.5 24t-7.5 33
t-23 29.5t-45 12.5zM593 544l-89 -80h-40l78 80h51z" />
    <glyph glyph-name="ecircumflex" unicode="&#xea;" horiz-adv-x="264" 
 />
    <glyph glyph-name="edieresis" unicode="&#xeb;" horiz-adv-x="264" 
 />
    <glyph glyph-name="igrave" unicode="&#xec;" horiz-adv-x="446" 
d="M310 464l-46 81l64 -1l28 -80h-46zM295 382h54l-30 -139q0 -1 -0.5 -3t-0.5 -3l-24 -111l-26 -126h-64l26 126l14 65l41 191h10z" />
    <glyph glyph-name="iacute" unicode="&#xed;" horiz-adv-x="468" 
d="M261 382h54h10l-41 -191l-13 -65l-27 -126h-64l27 126l23 111q1 2 1 6zM415 545l-80 -81h-46l62 80z" />
    <glyph glyph-name="icircumflex" unicode="&#xee;" horiz-adv-x="264" 
 />
    <glyph glyph-name="idieresis" unicode="&#xef;" horiz-adv-x="264" 
 />
    <glyph glyph-name="eth" unicode="&#xf0;" 
 />
    <glyph glyph-name="ntilde" unicode="&#xf1;" horiz-adv-x="264" 
 />
    <glyph glyph-name="ograve" unicode="&#xf2;" horiz-adv-x="531" 
d="M458 464l-55 80h51l44 -80h-40zM280 177q-18 -90 6 -134q21 -39 74 -39q54 0 91 39q42 44 62 134q19 90 -5 135q-19 40 -74 40t-92 -40q-43 -48 -62 -135zM217 179q18 83 81 138q64 55 140 55q77 0 117 -55q39 -56 23 -138q-19 -90 -84 -143q-62 -52 -138 -52
q-75 0 -117 53q-41 53 -22 142z" />
    <glyph glyph-name="oacute" unicode="&#xf3;" horiz-adv-x="531" 
d="M217 179q-19 -89 22 -142q42 -53 117 -53q76 0 138 52q65 53 84 143q16 82 -23 138q-40 55 -117 55q-76 0 -140 -55q-63 -55 -81 -138zM280 177q19 87 62 135q37 40 92 40t74 -40q24 -45 5 -135q-20 -90 -62 -134q-37 -39 -91 -39q-53 0 -74 39q-24 44 -6 134zM555 544
l-89 -80h-40l78 80h51z" />
    <glyph glyph-name="ocircumflex" unicode="&#xf4;" horiz-adv-x="264" 
 />
    <glyph glyph-name="otilde" unicode="&#xf5;" horiz-adv-x="264" 
 />
    <glyph glyph-name="odieresis" unicode="&#xf6;" horiz-adv-x="264" 
 />
    <glyph glyph-name="divide" unicode="&#xf7;" horiz-adv-x="264" 
 />
    <glyph glyph-name="oslash" unicode="&#xf8;" 
 />
    <glyph glyph-name="ugrave" unicode="&#xf9;" horiz-adv-x="683" 
d="M448 464l-55 80h51l44 -80h-40zM452 -5l16 73q-36 -42 -75 -63t-80 -21q-35 0 -60 17q-24 15 -30 40q-5 25 5 71l26 123l26 123h63l-53 -249q-7 -35 -7 -54q2 -18 17 -29q15 -12 39 -12q34 0 69 22q36 22 52 47q15 21 26 70l17 82l26 123h63l-50 -236l-27 -127h-63z" />
    <glyph glyph-name="uacute" unicode="&#xfa;" horiz-adv-x="684" 
d="M468 68l-16 -73h63l27 127l50 236h-63l-26 -123l-17 -82q-11 -49 -26 -70q-16 -25 -52 -47q-35 -22 -69 -22q-24 0 -39 12q-15 11 -17 29q0 19 7 54l53 249h-63l-26 -123l-26 -123q-10 -46 -5 -71q6 -25 30 -40q25 -17 60 -17q41 0 80 21t75 63zM555 544l-89 -80h-40
l78 80h51z" />
    <glyph glyph-name="ucircumflex" unicode="&#xfb;" 
 />
    <glyph glyph-name="udieresis" unicode="&#xfc;" 
 />
    <glyph glyph-name="yacute" unicode="&#xfd;" 
 />
    <glyph glyph-name="thorn" unicode="&#xfe;" 
 />
    <glyph glyph-name="ydieresis" unicode="&#xff;" horiz-adv-x="264" 
 />
    <glyph glyph-name="Lslash" unicode="&#x141;" 
 />
    <glyph glyph-name="lslash" unicode="&#x142;" 
 />
    <glyph glyph-name="OE" unicode="&#x152;" horiz-adv-x="264" 
 />
    <glyph glyph-name="oe" unicode="&#x153;" horiz-adv-x="264" 
 />
    <glyph glyph-name="Scaron" unicode="&#x160;" 
 />
    <glyph glyph-name="scaron" unicode="&#x161;" 
 />
    <glyph glyph-name="Ydieresis" unicode="&#x178;" horiz-adv-x="264" 
 />
    <glyph glyph-name="Zcaron" unicode="&#x17d;" 
 />
    <glyph glyph-name="zcaron" unicode="&#x17e;" 
 />
    <glyph glyph-name="florin" unicode="&#x192;" 
 />
    <glyph glyph-name="pi" unicode="&#x3c0;" 
 />
    <glyph glyph-name="endash" unicode="&#x2013;" horiz-adv-x="264" 
 />
    <glyph glyph-name="emdash" unicode="&#x2014;" horiz-adv-x="264" 
 />
    <glyph glyph-name="quoteleft" unicode="&#x2018;" horiz-adv-x="228" 
d="M174 408l156 300h64l-184 -300h-36z" />
    <glyph glyph-name="quoteright" unicode="&#x2019;" horiz-adv-x="228" 
d="M174 408l156 300h64l-184 -300h-36z" />
    <glyph glyph-name="quotesinglbase" unicode="&#x201a;" horiz-adv-x="264" 
 />
    <glyph glyph-name="quotedblleft" unicode="&#x201c;" horiz-adv-x="602" 
d="M174 408l156 300h64l-184 -300h-36zM425 408l156 300h64l-184 -300h-36z" />
    <glyph glyph-name="quotedblright" unicode="&#x201d;" horiz-adv-x="602" 
d="M174 408l156 300h64l-184 -300h-36zM425 408l156 300h64l-184 -300h-36z" />
    <glyph glyph-name="quotedblbase" unicode="&#x201e;" horiz-adv-x="264" 
 />
    <glyph glyph-name="dagger" unicode="&#x2020;" 
 />
    <glyph glyph-name="daggerdbl" unicode="&#x2021;" horiz-adv-x="264" 
 />
    <glyph glyph-name="bullet" unicode="&#x2022;" 
 />
    <glyph glyph-name="ellipsis" unicode="&#x2026;" 
 />
    <glyph glyph-name="perthousand" unicode="&#x2030;" horiz-adv-x="264" 
 />
    <glyph glyph-name="guilsinglleft" unicode="&#x2039;" horiz-adv-x="264" 
 />
    <glyph glyph-name="guilsinglright" unicode="&#x203a;" horiz-adv-x="264" 
 />
    <glyph glyph-name="fraction" unicode="&#x2044;" horiz-adv-x="1290" 
d="M851 -12h-105l434 708h104z" />
    <glyph glyph-name="Euro" unicode="&#x20ac;" horiz-adv-x="264" 
 />
    <glyph glyph-name="trademark" unicode="&#x2122;" 
 />
    <glyph glyph-name="Omega" unicode="&#x2126;" 
 />
    <glyph glyph-name="partialdiff" unicode="&#x2202;" 
 />
    <glyph glyph-name="Delta" unicode="&#x2206;" 
 />
    <glyph glyph-name="product" unicode="&#x220f;" 
 />
    <glyph glyph-name="summation" unicode="&#x2211;" 
 />
    <glyph glyph-name="minus" unicode="&#x2212;" horiz-adv-x="1123" 
d="M927 174l14 66h228l-14 -66h-228z" />
    <glyph glyph-name="radical" unicode="&#x221a;" 
 />
    <glyph glyph-name="infinity" unicode="&#x221e;" 
 />
    <glyph glyph-name="integral" unicode="&#x222b;" 
 />
    <glyph glyph-name="approxequal" unicode="&#x2248;" 
 />
    <glyph glyph-name="notequal" unicode="&#x2260;" 
 />
    <glyph glyph-name="lessequal" unicode="&#x2264;" 
 />
    <glyph glyph-name="greaterequal" unicode="&#x2265;" 
 />
    <glyph glyph-name="lozenge" unicode="&#x25ca;" horiz-adv-x="264" 
 />
    <glyph glyph-name="apple" unicode="&#xf8ff;" horiz-adv-x="264" 
 />
    <glyph glyph-name="fi" unicode="&#xfb01;" horiz-adv-x="264" 
 />
    <glyph glyph-name="fl" unicode="&#xfb02;" horiz-adv-x="264" 
 />
    </font>
</defs>
</svg>
